<svg height="72" viewBox="0 0 72 72" width="72" xmlns="http://www.w3.org/2000/svg" xmlns:xlink="http://www.w3.org/1999/xlink"><mask id="a" fill="#fff"><path d="m16.6666667 9.16666667h14.8333333c-2.6666667-5.5-8.3333333-9.16666667-14.8333333-9.16666667-5.1666667 0-9.83333337 2.33333333-12.83333337 6l5.5 9.5c.5-3.5 3.66666667-6.33333333 7.33333337-6.33333333zm0 15.00000003c-2.8333334 0-5.1666667-1.5-6.5-3.8333334l-7.50000003-12.8333333c-1.66666667 2.6666667-2.66666667 5.8333333-2.66666667 9.1666667 0 8.3333333 6 15.1666666 14 16.5l5.5-9.5c-1 .3333333-1.8333333.5-2.8333333.5zm7.5-7.5c0-2.3333334-1.1666667-4.5-2.8333334-5.8333334h11c.6666667 1.8333334 1 3.8333334 1 5.8333334 0 9.1666666-7.5 16.6666666-16.6666666 16.6666666h-1l7.5-13c.6666666-1 1-2.3333333 1-3.6666666zm-7.5 5.8333333c-3.2216611 0-5.8333334-2.6116723-5.8333334-5.8333333 0-3.2216611 2.6116723-5.8333334 5.8333334-5.8333334 3.221661 0 5.8333333 2.6116723 5.8333333 5.8333334 0 3.221661-2.6116723 5.8333333-5.8333333 5.8333333z" fill="#fff" fill-rule="evenodd"/></mask><g fill="none" fill-rule="evenodd"><circle cx="36" cy="36" fill="#1a73e8" r="36"/><g fill="#fff" mask="url(#a)" transform="translate(19.333333 19.333333)"><path d="m0 0h40v40h-40z" transform="translate(-3.333333 -3.333333)"/></g></g></svg>