<svg xmlns="http://www.w3.org/2000/svg" width="11.134" height="20.593" viewBox="0 0 11.134 20.593">
  <g id="fb-logo" transform="translate(-22.077)">
    <path id="Path_2" data-name="Path 2" d="M32.792,0l-2.67,0a4.69,4.69,0,0,0-4.939,5.068V7.4H22.5a.42.42,0,0,0-.42.42V11.21a.42.42,0,0,0,.42.42h2.685v8.543a.42.42,0,0,0,.42.42h3.5a.42.42,0,0,0,.42-.42V11.63h3.139a.42.42,0,0,0,.42-.42V7.825a.42.42,0,0,0-.42-.42H29.525V5.424c0-.952.227-1.435,1.467-1.435h1.8a.42.42,0,0,0,.42-.42V.424A.42.42,0,0,0,32.792,0Z" fill="#fff"/>
  </g>
</svg>
