<svg xmlns="http://www.w3.org/2000/svg" width="23.102" height="18.77" viewBox="0 0 23.102 18.77">
  <g id="twitter-logo" transform="translate(0 -48)">
    <g id="Group_2" data-name="Group 2" transform="translate(0 48)">
      <path id="Path_3" data-name="Path 3" d="M23.1,50.222a9.874,9.874,0,0,1-2.729.748,4.709,4.709,0,0,0,2.084-2.618,9.465,9.465,0,0,1-3,1.146,4.736,4.736,0,0,0-8.193,3.239,4.877,4.877,0,0,0,.11,1.08,13.406,13.406,0,0,1-9.762-4.954,4.737,4.737,0,0,0,1.455,6.33,4.677,4.677,0,0,1-2.14-.583v.052a4.758,4.758,0,0,0,3.794,4.654,4.727,4.727,0,0,1-1.242.156,4.188,4.188,0,0,1-.9-.081,4.781,4.781,0,0,0,4.425,3.3,9.516,9.516,0,0,1-5.872,2.02A8.871,8.871,0,0,1,0,64.645,13.333,13.333,0,0,0,7.266,66.77a13.387,13.387,0,0,0,13.48-13.477c0-.209-.007-.411-.017-.612A9.448,9.448,0,0,0,23.1,50.222Z" transform="translate(0 -48)" fill="#fff"/>
    </g>
  </g>
</svg>
