<svg xmlns="http://www.w3.org/2000/svg" width="24.302" height="16.707" viewBox="0 0 24.302 16.707">
  <g id="youtube-logo" transform="translate(0 -80)">
    <g id="Group_3" data-name="Group 3" transform="translate(0 80)">
      <path id="Path_4" data-name="Path 4" d="M23.269,81.61c-.659-1.173-1.375-1.388-2.831-1.47-1.455-.1-5.114-.14-8.284-.14s-6.836.041-8.29.138-2.17.3-2.836,1.472S0,84.8,0,88.349v.012c0,3.536.349,5.568,1.028,6.727s1.381,1.385,2.834,1.484,5.116.135,8.291.135,6.829-.05,8.285-.134c1.457-.1,2.172-.311,2.831-1.484.685-1.159,1.031-3.191,1.031-6.727v-.012C24.3,84.8,23.956,82.781,23.269,81.61ZM9.113,92.91V83.8l7.594,4.557Z" transform="translate(0 -80)" fill="#fff"/>
    </g>
  </g>
</svg>
